Run_30002
nRows=4
nColumns=164

# SIMM Motion File Header:
name Run_30002
datacolumns 164
datarows 4
otherdata 1
range 1.48000000 1.51000000
endheader
time	pelvis_tilt	pelvis_list	pelvis_rotation	pelvis_tx	pelvis_ty	pelvis_tz	hip_flexion_r	hip_adduction_r	hip_rotation_r	knee_angle_r	ankle_angle_r	hip_flexion_l	hip_adduction_l	hip_rotation_l	knee_angle_l	ankle_angle_l	lumbar_extension	lumbar_bending	lumbar_rotation	arm_flex_r	arm_add_r	arm_rot_r	elbow_flex_r	pro_sup_r	arm_flex_l	arm_add_l	arm_rot_l	elbow_flex_l	pro_sup_l	subtalar_angle_r	mtp_angle_r	subtalar_angle_l	mtp_angle_l	wrist_flex_r	wrist_dev_r	wrist_flex_l	wrist_dev_l	LASI_tx	LASI_ty	LASI_tz	RASI_tx	RASI_ty	RASI_tz	LPSI_tx	LPSI_ty	LPSI_tz	RPSI_tx	RPSI_ty	RPSI_tz	RTH1_tx	RTH1_ty	RTH1_tz	RTH2_tx	RTH2_ty	RTH2_tz	RTH3_tx	RTH3_ty	RTH3_tz	LTH1_tx	LTH1_ty	LTH1_tz	LTH2_tx	LTH2_ty	LTH2_tz	LTH3_tx	LTH3_ty	LTH3_tz	RTB1_tx	RTB1_ty	RTB1_tz	RTB2_tx	RTB2_ty	RTB2_tz	RTB3_tx	RTB3_ty	RTB3_tz	LTB1_tx	LTB1_ty	LTB1_tz	LTB2_tx	LTB2_ty	LTB2_tz	LTB3_tx	LTB3_ty	LTB3_tz	RCAL_tx	RCAL_ty	RCAL_tz	RTOE_tx	RTOE_ty	RTOE_tz	RMT5_tx	RMT5_ty	RMT5_tz	LCAL_tx	LCAL_ty	LCAL_tz	LTOE_tx	LTOE_ty	LTOE_tz	LMT5_tx	LMT5_ty	LMT5_tz	LACR_tx	LACR_ty	LACR_tz	RACR_tx	RACR_ty	RACR_tz	CLAV_tx	CLAV_ty	CLAV_tz	C7_tx	C7_ty	C7_tz	RUA1_tx	RUA1_ty	RUA1_tz	RUA2_tx	RUA2_ty	RUA2_tz	RUA3_tx	RUA3_ty	RUA3_tz	RLEL_tx	RLEL_ty	RLEL_tz	RMEL_tx	RMEL_ty	RMEL_tz	LUA1_tx	LUA1_ty	LUA1_tz	LUA2_tx	LUA2_ty	LUA2_tz	LUA3_tx	LUA3_ty	LUA3_tz	LLEL_tx	LLEL_ty	LLEL_tz	LMEL_tx	LMEL_ty	LMEL_tz	RFAsuperior_tx	RFAsuperior_ty	RFAsuperior_tz	RFAradius_tx	RFAradius_ty	RFAradius_tz	RFAulna_tx	RFAulna_ty	RFAulna_tz	LFAsuperior_tx	LFAsuperior_ty	LFAsuperior_tz	LFAradius_tx	LFAradius_ty	LFAradius_tz	LFAulna_tx	LFAulna_ty	LFAulna_tz
      1.48000000	      2.85461935	     -5.56579900	     -0.61687837	      1.23225924	      0.95007905	     -0.33553664	     20.87053590	     10.73838659	     -1.43260305	    -47.31547848	     21.22136115	      3.96829421	     -0.16788721	     -1.22267257	    -90.25215968	      4.39030404	    -20.68445583	     12.35334152	      6.00115102	    -25.94335542	    -24.56621384	     -9.21190136	    117.04589581	     91.48326100	    -20.55777765	    -11.07442656	      3.63110105	    108.58516744	     98.49295259	      0.00000000	      0.00000000	      0.00000000	      0.00000000	      0.00000000	      0.00000000	      0.00000000	      0.00000000	      1.23792771	      0.96312032	     -0.46212882	      1.24020638	      0.97572722	     -0.19970490	      1.06835324	      1.01728122	     -0.38384119	      1.06626635	      1.02106988	     -0.29195364	      1.22402858	      0.81808606	     -0.14504391	      1.28383637	      0.72966993	     -0.15609573	      1.26271348	      0.58786076	     -0.18513757	      1.17344771	      0.80565638	     -0.50978533	      1.24970191	      0.68284439	     -0.49363357	      1.18798787	      0.56296513	     -0.48657835	      1.30658187	      0.33442233	     -0.26927113	      1.23244727	      0.24658284	     -0.22709923	      1.22682981	      0.17848827	     -0.29721049	      1.06305043	      0.37483038	     -0.40929529	      0.99677936	      0.39795168	     -0.45161312	      0.92437076	      0.36749282	     -0.39634367	      1.07846003	      0.10457734	     -0.29770510	      1.31294062	      0.07481584	     -0.31168750	      1.29483766	      0.05383215	     -0.23431553	      0.77825933	      0.46170414	     -0.38086264	      0.79863832	      0.22098100	     -0.35616011	      0.77642438	      0.24233545	     -0.44349057	      1.26246851	      1.49102401	     -0.46204661	      1.26596608	      1.44309163	     -0.11622558	      1.31145059	      1.40408677	     -0.26570655	      1.20901771	      1.50909911	     -0.28690014	      1.20081084	      1.31479722	     -0.03770098	      1.13038205	      1.31836487	     -0.03060103	      1.13602668	      1.24640787	     -0.01312182	      1.09517871	      1.18201446	      0.01545196	      1.05020190	      1.17736419	     -0.06614471	      1.18618826	      1.39404799	     -0.54356316	      1.09817811	      1.36054953	     -0.52669588	      1.11891000	      1.28853795	     -0.57361416	      1.08878491	      1.22945744	     -0.59711419	      1.04950696	      1.21398574	     -0.51427866	      1.17776814	      1.15613737	     -0.00436991	      1.31480469	      1.10946606	     -0.09337390	      1.28980772	      1.04892097	     -0.06227613	      1.16472193	      1.18089836	     -0.58036203	      1.30340364	      1.12298779	     -0.48668642	      1.28037280	      1.06279131	     -0.52155728
      1.49000000	      2.69711216	     -5.13222212	      0.09680051	      1.22936355	      0.94769211	     -0.33644655	     19.59741081	     10.25454064	     -1.58818641	    -48.33460845	     23.26061016	      7.34733017	      0.05673108	     -0.70118673	    -92.43188909	      5.45759865	    -20.53335751	     12.02387614	      6.89033710	    -23.85474517	    -24.03563924	     -9.86963568	    114.50877093	     91.68589827	    -21.31147304	    -11.18135753	      3.51439578	    106.37388107	     98.18792175	      0.00000000	      0.00000000	      0.00000000	      0.00000000	      0.00000000	      0.00000000	      0.00000000	      0.00000000	      1.23394902	      0.96192581	     -0.46378490	      1.23924911	      0.97245383	     -0.19943047	      1.06503623	      1.01616706	     -0.38180995	      1.06401893	      1.02005067	     -0.28978309	      1.22057993	      0.81391877	     -0.14572887	      1.27812757	      0.72420599	     -0.15713153	      1.25283863	      0.58241588	     -0.18658126	      1.16981844	      0.80430625	     -0.51062993	      1.25643257	      0.68498665	     -0.49605481	      1.20181478	      0.56306373	     -0.49006756	      1.28758289	      0.32780395	     -0.27008999	      1.21002198	      0.24368574	     -0.22782752	      1.20064157	      0.17649290	     -0.29780756	      1.08369133	      0.37394823	     -0.41131493	      1.01715729	      0.39643486	     -0.45342080	      0.94523864	      0.36415584	     -0.39800990	      1.04899488	      0.10594985	     -0.29761621	      1.28324525	      0.07394864	     -0.31202775	      1.26495263	      0.05388664	     -0.23445166	      0.79522950	      0.45507878	     -0.38241569	      0.82495041	      0.21538013	     -0.35714490	      0.80265721	      0.23566473	     -0.44488585	      1.25670664	      1.48893566	     -0.46234692	      1.26879119	      1.43968196	     -0.11697313	      1.31019508	      1.40141875	     -0.26672575	      1.20732115	      1.50622305	     -0.28623806	      1.20813487	      1.30918896	     -0.03903642	      1.13759764	      1.30929504	     -0.03090990	      1.14634279	      1.23805133	     -0.01354978	      1.10967074	      1.17174762	      0.01464036	      1.06184816	      1.16561745	     -0.06537959	      1.17779962	      1.39286365	     -0.54241373	      1.08981573	      1.36077871	     -0.52163845	      1.10760353	      1.28941194	     -0.57054999	      1.07618548	      1.23091552	     -0.59409066	      1.03809153	      1.21482265	     -0.51044049	      1.19333729	      1.14706672	     -0.00791454	      1.32868603	      1.09766002	     -0.09450468	      1.30232576	      1.03771378	     -0.06161647	      1.15119573	      1.17877905	     -0.58064102	      1.28950093	      1.11210335	     -0.49353473	      1.26158923	      1.05374978	     -0.52852654
      1.50000000	      2.52284565	     -4.65195155	      0.58399058	      1.22700784	      0.94634763	     -0.33672941	     18.00476774	      9.85812237	     -1.48256034	    -48.80193706	     24.96603162	     10.57101486	      0.36433613	     -0.41030262	    -93.88854612	      6.40400110	    -20.31753083	     11.53816955	      8.09703191	    -22.43738905	    -23.27380577	    -10.74315180	    113.09836781	     92.15248703	    -22.32627584	    -11.70604676	      3.70584867	    105.18183589	     96.46735122	      0.00000000	      0.00000000	      0.00000000	      0.00000000	      0.00000000	      0.00000000	      0.00000000	      0.00000000	      1.23072532	      0.96196451	     -0.46488424	      1.23832082	      0.97001694	     -0.19825253	      1.06237028	      1.01586924	     -0.37997634	      1.06228126	      1.01955945	     -0.28772627	      1.21621743	      0.81034651	     -0.14617601	      1.27186731	      0.71894609	     -0.15822709	      1.24223670	      0.57787317	     -0.18773008	      1.16690139	      0.80389392	     -0.51151458	      1.26316680	      0.68914328	     -0.49802266	      1.21581469	      0.56500413	     -0.49312144	      1.26697655	      0.32208988	     -0.27141284	      1.18700925	      0.24108085	     -0.22885841	      1.17409211	      0.17494051	     -0.29853608	      1.10447749	      0.37390015	     -0.41286667	      1.03736910	      0.39506370	     -0.45476550	      0.96637474	      0.36036782	     -0.39917641	      1.01956652	      0.10760227	     -0.29766958	      1.25344525	      0.07311884	     -0.31245209	      1.23495949	      0.05405089	     -0.23467565	      0.81226699	      0.44637991	     -0.38262297	      0.85292592	      0.20808690	     -0.35885780	      0.82979834	      0.22785289	     -0.44652646	      1.25034745	      1.48862795	     -0.46248020	      1.27242285	      1.43746299	     -0.11776327	      1.30892719	      1.40005736	     -0.26791363	      1.20539377	      1.50444423	     -0.28528810	      1.21496402	      1.30549113	     -0.03995912	      1.14465245	      1.30266537	     -0.03204535	      1.15581597	      1.23227007	     -0.01452499	      1.12190369	      1.16465083	      0.01302209	      1.07241702	      1.15778627	     -0.06620025	      1.16839199	      1.39420105	     -0.54110008	      1.08072066	      1.36342365	     -0.51703328	      1.09567872	      1.29302976	     -0.56828386	      1.06269545	      1.23520737	     -0.59181153	      1.02638092	      1.21903853	     -0.50744546	      1.20661950	      1.14095136	     -0.01159342	      1.34142093	      1.09144891	     -0.09777696	      1.31459516	      1.03192826	     -0.06360496	      1.13570942	      1.17886996	     -0.58181217	      1.27498426	      1.10715953	     -0.50034500	      1.24267507	      1.04982823	     -0.53337043
      1.51000000	      2.38216397	     -4.16496456	      0.80866073	      1.22521648	      0.94622203	     -0.33658919	     15.99677554	      9.55960819	     -1.05127849	    -48.61290545	     26.27090471	     13.53183465	      0.70372268	     -0.35257688	    -94.62157980	      7.39237803	    -20.13089135	     10.99255594	      9.61438393	    -21.71467313	    -22.40257669	    -11.71044393	    113.06280890	     92.66862287	    -23.60803334	    -12.56999164	      4.12407277	    105.04138410	     93.71735225	      0.00000000	      0.00000000	      0.00000000	      0.00000000	      0.00000000	      0.00000000	      0.00000000	      0.00000000	      1.22811779	      0.96296304	     -0.46544791	      1.23739191	      0.96864451	     -0.19631616	      1.06039019	      1.01644216	     -0.37880358	      1.06098838	      1.01983624	     -0.28636788	      1.21134979	      0.80760537	     -0.14682728	      1.26492389	      0.71413989	     -0.15987177	      1.23053251	      0.57409726	     -0.18859464	      1.16567263	      0.80505091	     -0.51246375	      1.26970277	      0.69523000	     -0.49943322	      1.22924950	      0.56927407	     -0.49558769	      1.24479337	      0.31739616	     -0.27287127	      1.16305433	      0.23885046	     -0.22993956	      1.14695546	      0.17371957	     -0.29909339	      1.12511583	      0.37482375	     -0.41393588	      1.05720704	      0.39383857	     -0.45561926	      0.98776743	      0.35628895	     -0.39979638	      0.99020245	      0.10950567	     -0.29787023	      1.22356024	      0.07230314	     -0.31279734	      1.20484791	      0.05402780	     -0.23485307	      0.82929731	      0.43567678	     -0.38130305	      0.88260414	      0.19945701	     -0.36147349	      0.85817466	      0.21938667	     -0.44875459	      1.24392052	      1.48982057	     -0.46222961	      1.27654227	      1.43641327	     -0.11840134	      1.30799809	      1.40005903	     -0.26938290	      1.20385361	      1.50426755	     -0.28381719	      1.22147961	      1.30315630	     -0.04095009	      1.15139336	      1.29867058	     -0.03304552	      1.16397688	      1.22863987	     -0.01610072	      1.13126687	      1.16034901	      0.01121695	      1.08180115	      1.15335615	     -0.06807027	      1.15827112	      1.39806743	     -0.53952152	      1.07124761	      1.36848613	     -0.51273178	      1.08336619	      1.29913141	     -0.56663583	      1.04836771	      1.24209210	     -0.59013738	      1.01460565	      1.22634441	     -0.50511081	      1.21645853	      1.13718197	     -0.01422567	      1.35177852	      1.09177065	     -0.10300462	      1.32611917	      1.03197152	     -0.06866524	      1.11876071	      1.18198812	     -0.58326114	      1.26025160	      1.10814373	     -0.50668246	      1.22436330	      1.05112067	     -0.53618380
